<svg xmlns="http://www.w3.org/2000/svg" xmlns:xlink="http://www.w3.org/1999/xlink" id="fig" width="315" height="230" fill-opacity="1" fill-rule="evenodd" stroke-linecap="round" stroke-linejoin="round" stroke-opacity="1" font-family="Bitstream Courier" font-style="normal" font-weight="normal" pagecolor="#ffff00" pageopacity="0"><g font-size="12" transform="scale(1.0) translate(10,60)"><defs><marker id="linkdot_N" markerHeight="8" markerWidth="8" orient="auto" refX="4" refY="4" viewBox="0 0 8 8"><circle cx="4" cy="4" r="3" fill="#000" stroke="#000"/></marker><marker id="linkdot_U" markerHeight="8" markerWidth="8" orient="auto" refX="4" refY="4" viewBox="0 0 8 8"><line x1="1" x2="7" y1="1" y2="7" stroke="#000"/><line x1="1" x2="7" y1="7" y2="1" stroke="#000"/></marker><marker id="arrowtip_N" markerHeight="8" markerWidth="14" orient="auto" refX="13" refY="4" viewBox="0 0 14 8"><polygon fill="#000" stroke="#000" points="1 4 1 1 13 4 1 7"/></marker><marker id="arrowtip_C" markerHeight="8" markerWidth="14" orient="auto" refX="13" refY="4" viewBox="0 0 14 8"><polygon fill="#c00" stroke="#c00" points="1 4 1 1 13 4 1 7"/></marker><rect id="key_box_N" width="90" height="20" x="0" y="0" fill="#0ff" stroke="none"/><rect id="key_box_C" width="90" height="20" x="0" y="0" fill="#0ff" stroke="none"/><rect id="key_box_E" width="90" height="20" x="0" y="0" fill="#9cff9c" stroke="#000"/><rect id="key_box_U" width="90" height="20" x="0" y="0" fill="#ded" stroke="#000"/><rect id="val_box_E" width="80" height="20" x="0" y="0" fill="#9cff9c" stroke="#000"/><rect id="val_box_U" width="80" height="20" x="0" y="0" fill="#ded" stroke="#000"/><rect id="ptr_box_E" width="20" height="20" x="0" y="0" fill="#9cff9c" stroke="#000"/><rect id="ptr_box_U" width="20" height="20" x="0" y="0" fill="#ded" stroke="#000"/><rect id="hsh_box_U" width="24" height="18" x="3" y="1" fill="#ded" stroke="none"/><rect id="hsh_box_N" width="24" height="18" x="3" y="1" fill="#a8a8ff" stroke="none"/><rect id="hsh_box_C" width="24" height="18" x="3" y="1" fill="#e44" stroke="none"/><g id="vdots"><rect width="2" height="2" x="0" y="6"/><rect width="2" height="2" x="0" y="12"/></g></defs><g stroke="none" text-anchor="middle" transform="translate(0,000)"><text x="130" y="-30" fill="#000" stroke="none" font-size="15" font-weight="bold">hash</text><text x="130" y="-10" fill="#000" stroke="none" font-size="15" font-weight="bold">function</text><rect width="60" height="160" x="100" y="0" fill="#aec" stroke="none"/><text x="45" y="-10" fill="#000" stroke="none" font-size="15" font-weight="bold">keys</text><g transform="translate(0,30)"><use xlink:href="#key_box_N"/><text x="45" y="14" stroke="none">John Smith</text><line x1="95" x2="105" y1="10" y2="10" stroke="#000"/><line x1="105" x2="155" y1="10" y2="20" stroke="#000"/><line x1="155" x2="180" y1="20" y2="20" stroke="#000" marker-end="url(#arrowtip_N)"/></g><g transform="translate(0,70)"><use xlink:href="#key_box_N"/><text x="45" y="14" stroke="none">Lisa Smith</text><line x1="95" x2="105" y1="10" y2="10" stroke="#000"/><line x1="105" x2="155" y1="10" y2="-40" stroke="#000"/><line x1="155" x2="180" y1="-40" y2="-40" stroke="#000" marker-end="url(#arrowtip_N)"/></g><g transform="translate(0,110)"><use xlink:href="#key_box_N"/><text x="45" y="14" stroke="none">Sandra Dee</text><line x1="95" x2="105" y1="10" y2="10" stroke="#000"/><line x1="105" x2="155" y1="10" y2="20" stroke="#000"/><line x1="155" x2="180" y1="20" y2="20" stroke="#000" marker-end="url(#arrowtip_N)"/></g></g><g stroke="none" text-anchor="middle"><text x="70" y="-10" fill="#000" stroke="none" font-size="15" font-weight="bold" transform="translate(180,000)">buckets</text><g transform="translate(180,000) translate(000,0)"><use x="0" xlink:href="#hsh_box_U"/><text x="15" y="14">00</text><use x="30" xlink:href="#val_box_U"/></g><g transform="translate(180,000) translate(000,20)"><use x="0" xlink:href="#hsh_box_N"/><text x="15" y="14">01</text><use x="30" xlink:href="#val_box_E"/><text x="70" y="14">521-8976</text></g><g transform="translate(180,000) translate(000,40)"><use x="0" xlink:href="#hsh_box_N"/><text x="15" y="14">02</text><use x="30" xlink:href="#val_box_E"/><text x="70" y="14">521-1234</text></g><g transform="translate(180,000) translate(000,60)"><use x="0" xlink:href="#hsh_box_U"/><text x="15" y="14">03</text><use x="30" xlink:href="#val_box_U"/></g><g><text x="15" y="14" font-weight="bold" transform="translate(180,000) translate(000,80)">:</text><text x="70" y="14" font-weight="bold" transform="translate(180,000) translate(000,80)">:</text></g><g transform="translate(180,000) translate(000,100)"><use x="0" xlink:href="#hsh_box_U"/><text x="15" y="14">13</text><use x="30" xlink:href="#val_box_U"/></g><g transform="translate(180,000) translate(000,120)"><use x="0" xlink:href="#hsh_box_N"/><text x="15" y="14">14</text><use x="30" xlink:href="#val_box_E"/><text x="70" y="14">521-9655</text></g><g transform="translate(180,000) translate(000,140)"><use x="0" xlink:href="#hsh_box_U"/><text x="15" y="14">15</text><use x="30" xlink:href="#val_box_U"/></g></g></g></svg>